# xmcd
#
# Track frame offsets: 
#        150
#        19863
#        38875
#        56097
#        76795
#        96291
#        115845
#        134427
#        157283
#        177910
#        195159
#        212245
#
# Disc length: 3073 seconds
#
# Revision: 5
# Processed by: cddbd v1.5.2PL0 Copyright (c) Steve Scherf et al.
# Submitted via: ExactAudioCopy v1.0b3
#
DISCID=a20bff0c
DTITLE=林志美 - 原美主義
DYEAR=2006
DGENRE=Chinese Pop
TTITLE0=糾纏(新)
TTITLE1=偶然相遇(新)
TTITLE2=偏偏喜歡你
TTITLE3=黑色毛衣
TTITLE4=雨夜鋼琴
TTITLE5=忘不了你
TTITLE6=你的模樣(新)
TTITLE7=Both Sides Now
TTITLE8=愛如潮水
TTITLE9=如果愛
TTITLE10=追憶
TTITLE11=忘情水
EXTD=YEAR: 2006
EXTT0=
EXTT1=
EXTT2=
EXTT3=
EXTT4=
EXTT5=
EXTT6=
EXTT7=
EXTT8=
EXTT9=
EXTT10=
EXTT11=
PLAYORDER=
